<svg width="1267" height="180" viewBox="0 0 1267 180" fill="none" xmlns="http://www.w3.org/2000/svg">
<path d="M551.819 65.8935C487.905 70.1891 443.75 79.3686 443.75 89.9996C443.75 104.746 528.704 116.7 633.5 116.7C709.052 116.7 774.291 110.487 804.819 101.493M768.833 35.3571C726.452 33.2794 680.912 32.15 633.5 32.15C406.442 32.15 222.375 58.0503 222.375 90C222.375 121.95 406.442 147.85 633.5 147.85C860.558 147.85 1044.63 121.95 1044.63 90C1044.63 83.3286 1036.6 76.9206 1021.83 70.9571M936.072 11.8248C846.194 4.92272 743.103 1 633.5 1C284.18 1.00001 0.999999 40.8466 1 90C1 139.153 284.18 179 633.5 179C982.82 179 1266 139.153 1266 90C1266 74.5776 1238.12 60.0715 1189.07 47.4246M976.394 47.4246L633.5 90" stroke="#B40220" stroke-width="0.5" stroke-linecap="round" stroke-linejoin="round"/>
</svg>
