<svg width="946" height="126" viewBox="0 0 946 126" fill="none" xmlns="http://www.w3.org/2000/svg">
<path d="M412.046 46.2067C364.35 49.1991 331.4 55.5938 331.4 62.9997C331.4 73.2722 394.797 81.5997 473 81.5997C529.38 81.5997 578.065 77.2715 600.846 71.0067M573.991 24.9342C542.365 23.4868 508.381 22.7 473 22.7C303.559 22.7 166.2 40.7429 166.2 63C166.2 85.2571 303.559 103.3 473 103.3C642.441 103.3 779.8 85.2571 779.8 63C779.8 58.3525 773.81 53.8885 762.792 49.7342M698.793 8.5409C631.722 3.73268 554.791 1 473 1C212.321 1 0.999999 28.7583 1 63C1 97.2417 212.321 125 473 125C733.679 125 945 97.2417 945 63C945 52.2563 924.197 42.1509 887.593 33.3407M728.883 33.3407L473 63" stroke="#B40220" stroke-width="0.5" stroke-linecap="round" stroke-linejoin="round"/>
</svg>
