<svg width="24" height="24" viewBox="0 0 24 24" fill="none" xmlns="http://www.w3.org/2000/svg">
<g clip-path="url(#clip0_86_151)">
<path d="M0.856934 22.7829L13.7141 22.7829L0.856934 22.7829ZM11.9998 22.7829L11.9998 18.4971L2.57122 18.4971L2.57122 22.7829" fill="#FFFBF4"/>
<path d="M0.856934 22.7829L13.7141 22.7829M11.9998 22.7829L11.9998 18.4971L2.57122 18.4971L2.57122 22.7829" stroke="white" stroke-linecap="round" stroke-linejoin="round"/>
<path d="M13.3487 1.71843L7.20291 7.86419C6.53344 8.53367 6.53344 9.61909 7.20291 10.2886L9.9182 13.0039C10.5877 13.6733 11.6731 13.6733 12.3426 13.0039L18.4883 6.85808C19.1578 6.18861 19.1578 5.10319 18.4883 4.43372L15.773 1.71843C15.1036 1.04896 14.0181 1.04896 13.3487 1.71843Z" fill="white" stroke="#FFFBF4" stroke-linecap="round" stroke-linejoin="round"/>
<path d="M15.4282 9.92571L23.1425 17.64" stroke="#FFFBF4" stroke-linecap="round" stroke-linejoin="round"/>
</g>
<defs>
<clipPath id="clip0_86_151">
<rect width="24" height="24" fill="white"/>
</clipPath>
</defs>
</svg>
